<?xml version="1.0" encoding="utf-8"?>
<svg viewBox="0 0 24 24" xmlns="http://www.w3.org/2000/svg">
  <path d="M 18.522 14.341 C 18.522 13.791 18.073 13.342 17.523 13.342 C 16.971 13.342 16.522 13.791 16.522 14.341 C 16.522 14.893 16.971 15.342 17.523 15.342 C 18.073 15.342 18.522 14.893 18.522 14.341 Z M 7.477 14.341 C 7.477 13.791 7.028 13.342 6.476 13.342 C 5.926 13.342 5.477 13.791 5.477 14.341 C 5.477 14.893 5.926 15.342 6.476 15.342 C 7.028 15.342 7.477 14.893 7.477 14.341 Z M 17.88 9.322 C 21.309 11.186 23.656 14.659 23.999 18.76 L 0 18.76 C 0.343 14.659 2.688 11.186 6.119 9.322 L 4.12 5.862 C 4.007 5.664 4.075 5.411 4.273 5.294 C 4.472 5.181 4.725 5.249 4.841 5.447 L 6.863 8.95 C 8.41 8.245 10.146 7.85 11.999 7.85 C 13.853 7.85 15.589 8.245 17.136 8.95 L 19.158 5.447 C 19.274 5.249 19.527 5.181 19.726 5.294 C 19.924 5.411 19.992 5.664 19.877 5.862 L 17.88 9.322 Z M 8.348 15.563 C 8.52 16.048 8.859 16.49 9.328 16.844 C 11.385 18.401 14.898 17.689 15.65 15.563 C 13.322 16.329 10.677 16.329 8.348 15.563 Z" fill="#3ddb85" style="" transform="matrix(0.9999999999999999, 0, 0, 0.9999999999999999, 0, 0)"/>
</svg>